<svg width="409" height="408" viewBox="0 0 409 408" fill="none" xmlns="http://www.w3.org/2000/svg">
<path d="M408.577 101.917C408.577 45.6298 362.947 0 306.66 0C250.373 0 204.743 45.6298 204.743 101.917C204.743 158.204 250.373 203.834 306.66 203.834C362.947 203.834 408.577 158.204 408.577 101.917Z" fill="#E5A776"/>
<path d="M306.651 147.435C281.523 147.435 261.142 127.053 261.142 101.926C261.142 76.7979 281.523 56.4163 306.651 56.4163C331.779 56.4163 352.16 76.7979 352.16 101.926C352.16 127.053 331.779 147.435 306.651 147.435Z" fill="#EFDFC2"/>
<path d="M204.743 203.834H0.908813C0.908813 91.2601 92.1689 0 204.743 0V203.834Z" fill="#E3DED1"/>
<path d="M204.743 407.668C92.1689 407.668 0.908813 316.408 0.908813 203.834H204.743V407.668Z" fill="#FFB98C"/>
<path d="M204.742 319.739C140.733 319.739 88.838 267.844 88.838 203.834H204.742V319.739Z" fill="#EFDFC2"/>
<path d="M408.577 203.834H204.743V407.668H408.577V203.834Z" fill="#BCC6BE"/>
<path d="M350.279 262.132H263.04V349.371H350.279V262.132Z" fill="#E3DED1"/>
</svg>
